<svg id="emoji" xmlns="http://www.w3.org/2000/svg" viewBox="0 0 72 72">
<style type="text/css">
	.st0{fill:#186648;}
	.st1{fill:#FFFFFF;}
	.st2{fill:none;stroke:#f1b31c;stroke-miterlimit:10;}
	.st3{fill:#FFFFFF;stroke:#FFFFFF;stroke-linecap:round;stroke-linejoin:round;}
	.st4{fill:none;stroke:#FFFFFF;stroke-width:2;stroke-linecap:round;stroke-linejoin:round;}
	.st5{fill:none;stroke:#000000;stroke-width:2;stroke-linecap:round;stroke-linejoin:round;}
</style>
<g id="color">
	<rect x="5" y="17" class="st0" width="62" height="38"/>
	<path class="st1" d="M52.5,36c0,4.3-1.8,8.6-4.8,11.7c-3,3.1-7.3,4.8-11.7,4.8c-4.3,0-8.6-1.8-11.7-4.8c-3.1-3-4.8-7.3-4.8-11.7
		c0-4.3,1.8-8.6,4.8-11.7c3-3.1,7.3-4.8,11.7-4.8c4.3,0,8.6,1.8,11.7,4.8C50.7,27.4,52.5,31.7,52.5,36z M50.5,36
		c0-3.8-1.5-7.6-4.2-10.3c-2.7-2.7-6.4-4.3-10.3-4.2c-3.8,0-7.6,1.5-10.3,4.2c-2.7,2.7-4.3,6.4-4.2,10.3c0,3.8,1.5,7.6,4.2,10.3
		c2.7,2.7,6.4,4.3,10.3,4.2c3.8,0,7.6-1.5,10.3-4.2C49,43.6,50.5,39.8,50.5,36z"/>
	<circle class="st2" cx="36" cy="36" r="13"/>
	<g>
		<path class="st3" d="M36,40.7c-4.9,0.1-9.1-3.3-10.2-8c-0.1,0.6-0.2,1.3-0.2,1.9c0.2,5.7,5.1,10.2,10.8,9.9
			c5.4-0.2,9.7-4.5,9.9-9.9c0-0.6-0.1-1.3-0.2-1.9C45.1,37.4,40.9,40.8,36,40.7z"/>
	</g>
	<line class="st4" x1="42" y1="32.2" x2="42" y2="33.8"/>
	<line class="st4" x1="29.8" y1="30" x2="42.2" y2="30"/>
	<line class="st4" x1="39" y1="32.2" x2="39" y2="35.8"/>
	<line class="st4" x1="36" y1="32.2" x2="36" y2="35.8"/>
	<line class="st4" x1="33" y1="32.2" x2="33" y2="35.8"/>
	<line class="st4" x1="30" y1="32.2" x2="30" y2="33.8"/>
</g>
<g id="line">
	<rect x="5" y="17" class="st5" width="62" height="38"/>
</g>
</svg>
