<svg id="emoji" xmlns="http://www.w3.org/2000/svg" viewBox="0 0 72 72">
<style type="text/css">
	.st0{fill:#FA7F04;}
	.st1{fill:none;stroke:#048004;stroke-width:2;stroke-miterlimit:10;}
	.st2{fill:#FFFFFF;stroke:#FFFFFF;stroke-linecap:round;stroke-linejoin:round;}
	.st3{stroke:#000000;stroke-linecap:round;stroke-linejoin:round;}
	.st4{fill:none;stroke:#000000;stroke-linecap:round;stroke-linejoin:round;}
	.st5{fill:#FA7F04;stroke:#FA7F04;stroke-linecap:round;stroke-linejoin:round;}
	.st6{fill:#FCFE04;stroke:#FCFE04;stroke-linecap:round;stroke-linejoin:round;}
	.st7{fill:none;stroke:#000000;stroke-width:2;stroke-linecap:round;stroke-linejoin:round;}
</style>
<g id="color">
	<rect x="5" y="17" class="st0" width="62" height="38"/>
	<rect x="7" y="19" class="st1" width="58" height="34"/>
	<circle class="st2" cx="36.6" cy="36.4" r="5.8"/>
	<polygon class="st3" points="60,21.8 60.5,23.1 61.8,22.6 61,23.9 62.3,24.6 60.9,24.9 61,26.3 60,25.3 59,26.3 59,24.9 57.8,24.6
		58.9,23.9 58.2,22.6 59.5,23.1 	"/>
	<circle class="st4" cx="36" cy="36" r="7.8"/>
	<polygon class="st5" points="36.1,39.4 35.4,37.5 33.4,38 34.4,36.3 32.6,35 34.7,34.8 34.5,32.6 36.1,34 37.6,32.6 37.5,34.8
		39.4,35 37.8,36.3 38.8,38 36.9,37.5 	"/>
	<circle class="st1" cx="36" cy="36" r="6.5"/>
	<polygon class="st6" points="41.4,22 41.9,23.3 43.2,22.9 42.5,24.1 43.7,24.9 42.3,25.1 42.4,26.5 41.4,25.5 40.4,26.5 40.5,25.1
		39.2,24.9 40.3,24.1 39.6,22.9 40.9,23.3 	"/>
	<polygon class="st6" points="30.3,22.1 30.8,23.4 32.1,23 31.4,24.2 32.6,25 31.3,25.2 31.3,26.6 30.3,25.6 29.3,26.6 29.4,25.2
		28.1,25 29.3,24.2 28.6,23 29.8,23.4 	"/>
	<polygon class="st6" points="48.6,30.8 49.1,32.1 50.4,31.7 49.7,32.9 50.9,33.7 49.5,33.9 49.6,35.3 48.6,34.3 47.6,35.3
		47.7,33.9 46.4,33.7 47.5,32.9 46.8,31.7 48.1,32.1 	"/>
	<polygon class="st6" points="23.2,31 23.7,32.3 25,31.9 24.3,33.1 25.5,33.9 24.1,34.1 24.2,35.5 23.2,34.5 22.2,35.5 22.3,34.1
		21,33.9 22.1,33.1 21.4,31.9 22.7,32.3 	"/>
	<polygon class="st6" points="46.2,41.8 46.7,43.1 48,42.7 47.3,43.9 48.5,44.7 47.1,44.9 47.2,46.3 46.2,45.3 45.2,46.3 45.3,44.9
		44,44.7 45.1,43.9 44.4,42.7 45.7,43.1 	"/>
	<polygon class="st6" points="25.8,41.9 26.3,43.2 27.6,42.8 26.9,44 28.1,44.8 26.7,45 26.8,46.4 25.8,45.4 24.8,46.4 24.9,45
		23.6,44.8 24.7,44 24,42.8 25.3,43.2 	"/>
	<polygon class="st6" points="36,45.8 36.5,47 37.8,46.6 37,47.8 38.3,48.6 36.9,48.8 37,50.3 36,49.3 35,50.3 35,48.8 33.8,48.6
		34.9,47.8 34.2,46.6 35.5,47 	"/>
</g>
<g id="line">
	<rect x="5" y="17" class="st7" width="62" height="38"/>
</g>
</svg>
